{
  "accessors": [
    {
      "bufferView": 2,
      "componentType": 5126,
      "count": 1086,
      "max": [
        0.33737999200820923,
        0.23177999258041382,
        1.1022900342941284
      ],
      "min": [
        -0.33737999200820923,
        -0.4935300052165985,
        0.0
      ],
      "type": "VEC3"
    },
    {
      "bufferView": 2,
      "byteOffset": 13032,
      "componentType": 5126,
      "count": 1086,
      "max": [
        0.9997072815895081,
        0.9965513348579407,
        0.9993979930877686
      ],
      "min": [
        -0.9996997714042664,
        -0.9999295473098755,
        -1.0
      ],
      "type": "VEC3"
    },
    {
      "bufferView": 3,
      "componentType": 5126,
      "count": 1086,
      "max": [
        0.9998486042022705,
        0.9953212141990662,
        0.9952117204666138,
        1.0
      ],
      "min": [
        -0.9998978972434998,
        -0.9994097352027893,
        -0.9892243146896362,
        -1.0
      ],
      "type": "VEC4"
    },
    {
      "bufferView": 1,
      "componentType": 5126,
      "count": 1086,
      "max": [
        1.0043699741363525,
        0.9574199914932251
      ],
      "min": [
        0.0027699999045580626,
        0.024159999564290047
      ],
      "type": "VEC2"
    },
    {
      "bufferView": 1,
      "byteOffset": 8688,
      "componentType": 5126,
      "count": 1086,
      "max": [
        1.0043699741363525,
        0.9574199914932251
      ],
      "min": [
        0.0027699999045580626,
        0.024159999564290047
      ],
      "type": "VEC2"
    },
    {
      "bufferView": 1,
      "byteOffset": 17376,
      "componentType": 5126,
      "count": 1086,
      "max": [
        1.0043699741363525,
        0.9574199914932251
      ],
      "min": [
        0.0027699999045580626,
        0.024159999564290047
      ],
      "type": "VEC2"
    },
    {
      "bufferView": 0,
      "componentType": 5125,
      "count": 5340,
      "type": "SCALAR"
    }
  ],
  "asset": {
    "extras": {
      "author": "Kyan0s (https://sketchfab.com/kyan0s)",
      "license": "CC-BY-4.0 (http://creativecommons.org/licenses/by/4.0/)",
      "source": "https://sketchfab.com/3d-models/child-blacksmiths-workshop-assets-d0e274c15c2f46d89d0412b2112877b5",
      "title": "Child - Blacksmith's workshop assets"
    },
    "generator": "Sketchfab-12.66.0",
    "version": "2.0"
  },
  "bufferViews": [
    {
      "buffer": 0,
      "byteLength": 21360,
      "name": "floatBufferViews",
      "target": 34963
    },
    {
      "buffer": 0,
      "byteLength": 26064,
      "byteOffset": 21360,
      "byteStride": 8,
      "name": "floatBufferViews",
      "target": 34962
    },
    {
      "buffer": 0,
      "byteLength": 26064,
      "byteOffset": 47424,
      "byteStride": 12,
      "name": "floatBufferViews",
      "target": 34962
    },
    {
      "buffer": 0,
      "byteLength": 17376,
      "byteOffset": 73488,
      "byteStride": 16,
      "name": "floatBufferViews",
      "target": 34962
    }
  ],
  "buffers": [
    {
      "byteLength": 90864,
      "uri": "scene.bin"
    }
  ],
  "images": [
    {
      "uri": "textures/child_baseColor.png"
    },
    {
      "uri": "textures/child_metallicRoughness.png"
    },
    {
      "uri": "textures/child_normal.png"
    }
  ],
  "materials": [
    {
      "doubleSided": true,
      "name": "child",
      "normalTexture": {
        "index": 2
      },
      "occlusionTexture": {
        "index": 1
      },
      "pbrMetallicRoughness": {
        "baseColorTexture": {
          "index": 0
        },
        "metallicFactor": 0.0,
        "metallicRoughnessTexture": {
          "index": 1
        }
      }
    }
  ],
  "meshes": [
    {
      "name": "children_0",
      "primitives": [
        {
          "attributes": {
            "NORMAL": 1,
            "POSITION": 0,
            "TANGENT": 2,
            "TEXCOORD_0": 3,
            "TEXCOORD_1": 4,
            "TEXCOORD_2": 5
          },
          "indices": 6,
          "material": 0,
          "mode": 4
        }
      ]
    }
  ],
  "nodes": [
    {
      "children": [
        1
      ],
      "matrix": [
        1.0,
        0.0,
        0.0,
        0.0,
        0.0,
        2.220446049250313e-16,
        -1.0,
        0.0,
        0.0,
        1.0,
        2.220446049250313e-16,
        0.0,
        0.0,
        0.0,
        0.0,
        1.0
      ],
      "name": "Sketchfab_model"
    },
    {
      "children": [
        2
      ],
      "name": "Root"
    },
    {
      "children": [
        3
      ],
      "name": "children"
    },
    {
      "mesh": 0,
      "name": "children_0"
    }
  ],
  "samplers": [
    {
      "magFilter": 9729,
      "minFilter": 9987,
      "wrapS": 10497,
      "wrapT": 10497
    }
  ],
  "scene": 0,
  "scenes": [
    {
      "name": "Sketchfab_Scene",
      "nodes": [
        0
      ]
    }
  ],
  "textures": [
    {
      "sampler": 0,
      "source": 0
    },
    {
      "sampler": 0,
      "source": 1
    },
    {
      "sampler": 0,
      "source": 2
    }
  ]
}
