{
  "accessors": [
    {
      "bufferView": 2,
      "componentType": 5126,
      "count": 11838,
      "max": [
        6.55517053604126,
        6.110363483428955,
        0.6367700099945068
      ],
      "min": [
        -6.55517053604126,
        -6.110363483428955,
        -0.6367701292037964
      ],
      "type": "VEC3"
    },
    {
      "bufferView": 2,
      "byteOffset": 142056,
      "componentType": 5126,
      "count": 11838,
      "max": [
        1.0,
        1.0,
        1.0
      ],
      "min": [
        -1.0,
        -1.0,
        -1.0
      ],
      "type": "VEC3"
    },
    {
      "bufferView": 1,
      "componentType": 5126,
      "count": 11838,
      "max": [
        0.9931640625,
        0.99560546875
      ],
      "min": [
        0.0,
        0.00466156005859375
      ],
      "type": "VEC2"
    },
    {
      "bufferView": 1,
      "byteOffset": 94704,
      "componentType": 5126,
      "count": 11838,
      "max": [
        0.9931640625,
        0.99560546875
      ],
      "min": [
        0.0,
        0.00466156005859375
      ],
      "type": "VEC2"
    },
    {
      "bufferView": 0,
      "componentType": 5125,
      "count": 26736,
      "type": "SCALAR"
    }
  ],
  "asset": {
    "extras": {
      "author": "ZOCEN (https://sketchfab.com/fdjskrr32d)",
      "license": "CC-BY-4.0 (http://creativecommons.org/licenses/by/4.0/)",
      "source": "https://sketchfab.com/3d-models/badge-season4-5c3562e808a0482a848893eec1b72d58",
      "title": "Badge Season4"
    },
    "generator": "Sketchfab-14.25.0",
    "version": "2.0"
  },
  "bufferViews": [
    {
      "buffer": 0,
      "byteLength": 106944,
      "name": "floatBufferViews",
      "target": 34963
    },
    {
      "buffer": 0,
      "byteLength": 189408,
      "byteOffset": 106944,
      "byteStride": 8,
      "name": "floatBufferViews",
      "target": 34962
    },
    {
      "buffer": 0,
      "byteLength": 284112,
      "byteOffset": 296352,
      "byteStride": 12,
      "name": "floatBufferViews",
      "target": 34962
    }
  ],
  "buffers": [
    {
      "byteLength": 580464,
      "uri": "scene.bin"
    }
  ],
  "images": [
    {
      "uri": "textures/Badge_LegendsDiamond_PBR_baseColor.png"
    }
  ],
  "materials": [
    {
      "doubleSided": true,
      "name": "Badge_LegendsDiamond_PBR",
      "pbrMetallicRoughness": {
        "baseColorTexture": {
          "index": 0
        },
        "metallicFactor": 0.0,
        "roughnessFactor": 0.0
      }
    }
  ],
  "meshes": [
    {
      "name": "BadgeSeason4_Badge_LegendsDiamond_PBR_0",
      "primitives": [
        {
          "attributes": {
            "NORMAL": 1,
            "POSITION": 0,
            "TEXCOORD_0": 2,
            "TEXCOORD_1": 3
          },
          "indices": 4,
          "material": 0,
          "mode": 4
        }
      ]
    }
  ],
  "nodes": [
    {
      "children": [
        1
      ],
      "matrix": [
        1.0,
        0.0,
        0.0,
        0.0,
        0.0,
        2.220446049250313e-16,
        -1.0,
        0.0,
        0.0,
        1.0,
        2.220446049250313e-16,
        0.0,
        0.0,
        0.0,
        0.0,
        1.0
      ],
      "name": "Sketchfab_model"
    },
    {
      "children": [
        2
      ],
      "matrix": [
        0.009999999776482582,
        0.0,
        0.0,
        0.0,
        0.0,
        0.0,
        0.009999999776482582,
        0.0,
        0.0,
        -0.009999999776482582,
        0.0,
        0.0,
        0.0,
        0.0,
        0.0,
        1.0
      ],
      "name": "819e77dd38c44d43b44a84226df56f35.fbx"
    },
    {
      "children": [
        3
      ],
      "name": "RootNode"
    },
    {
      "children": [
        4
      ],
      "matrix": [
        -1.0000007152557373,
        1.2246476750830027e-16,
        1.2246476750830022e-16,
        0.0,
        1.2246467991473535e-16,
        1.0,
        1.2246467991473535e-16,
        0.0,
        -1.2246476750830022e-16,
        1.2246476750830027e-16,
        -1.0000007152557373,
        0.0,
        0.0,
        0.0,
        0.0,
        1.0
      ],
      "name": "BadgeSeason4"
    },
    {
      "mesh": 0,
      "name": "BadgeSeason4_Badge_LegendsDiamond_PBR_0"
    }
  ],
  "samplers": [
    {
      "magFilter": 9729,
      "minFilter": 9987,
      "wrapS": 10497,
      "wrapT": 10497
    }
  ],
  "scene": 0,
  "scenes": [
    {
      "name": "Sketchfab_Scene",
      "nodes": [
        0
      ]
    }
  ],
  "textures": [
    {
      "sampler": 0,
      "source": 0
    }
  ]
}
